<svg xmlns="http://www.w3.org/2000/svg" viewBox="0 0 512.51 115.42"><defs><style>.cls-1{fill:#03aeda;}.cls-2{fill:#e91627;}.cls-3{fill:#046ab4;}.cls-4{fill:#f36e24;}.cls-5{fill:#6d2281;}.cls-6{fill:#fdba27;}.cls-7{fill:#087f69;}.cls-8{fill:#ffd000;}.cls-12,.cls-9{isolation:isolate;fill:#fff;}.cls-9{font-size:53.74px;font-family:Montserrat-Bold, Montserrat;font-weight:700;}.cls-10{letter-spacing:-0.01em;}.cls-11{letter-spacing:0em;}.cls-12{font-size:53.75px;font-family:Montserrat-Regular, Montserrat;}.cls-13{letter-spacing:0em;}.cls-14{letter-spacing:-0.01em;}.cls-15{letter-spacing:-0.01em;}.cls-16{letter-spacing:0em;}</style></defs><title>Asset 14</title><g id="Layer_2" data-name="Layer 2"><g id="Layer_1-2" data-name="Layer 1"><path class="cls-1" d="M95.9,30.8H71.8V7.2h.5v.1A25.29,25.29,0,0,1,95.9,30.8Z"/><rect class="cls-2" x="71.8" y="30.8" width="24.1" height="23.6"/><rect class="cls-3" x="48.2" y="7.2" width="24.1" height="23.6"/><rect class="cls-4" x="24.1" y="77.9" width="24.1" height="23.5"/><rect class="cls-5" x="24.1" y="54.3" width="24.1" height="23.5"/><rect class="cls-6" y="54.3" width="24.1" height="23.5"/><path class="cls-7" d="M24.1,101.4C11.2,100.7.7,90.5,0,77.9H24.1Z"/><rect class="cls-8" x="48.2" y="30.8" width="24.1" height="23.6"/><text class="cls-9" transform="translate(164.24 45.68) scale(1.02 1)">CHA<tspan class="cls-10" x="123.98" y="0">P</tspan><tspan class="cls-11" x="162.78" y="0">ERO</tspan></text><text class="cls-12" transform="translate(105.33 101.34) scale(1.02 1)">EL<tspan class="cls-13" x="67.62" y="0">E</tspan><tspan class="cls-14" x="103.36" y="0">C</tspan><tspan x="141.52" y="0">TRÓNI</tspan><tspan class="cls-15" x="316.26" y="0">C</tspan><tspan class="cls-16" x="354.1" y="0">O</tspan></text></g></g></svg>