<svg xmlns="http://www.w3.org/2000/svg" viewBox="0 0 509.66 94.46"><defs><style>.cls-1{fill:#03aeda;}.cls-2{fill:#e91627;}.cls-3{fill:#046ab4;}.cls-4{fill:#f36e24;}.cls-5{fill:#6d2281;}.cls-6{fill:#fdba27;}.cls-7{fill:#087f69;}.cls-8{fill:#ffd000;}.cls-9{isolation:isolate;}.cls-10{fill:#fff;}</style></defs><title>Asset 21</title><g id="Layer_2" data-name="Layer 2"><g id="Layer_1-2" data-name="Layer 1"><path class="cls-1" d="M95.9,23.6H71.8V0h.5V.1A25.29,25.29,0,0,1,95.9,23.6Z"/><rect class="cls-2" x="71.8" y="23.6" width="24.1" height="23.6"/><rect class="cls-3" x="48.2" width="24.1" height="23.6"/><rect class="cls-4" x="24.1" y="70.7" width="24.1" height="23.5"/><rect class="cls-5" x="24.1" y="47.1" width="24.1" height="23.5"/><rect class="cls-6" y="47.1" width="24.1" height="23.5"/><path class="cls-7" d="M24.1,94.2C11.2,93.5.7,83.3,0,70.7H24.1Z"/><rect class="cls-8" x="48.2" y="23.6" width="24.1" height="23.6"/><g class="cls-9"><path class="cls-10" d="M176.55,36.62a18.69,18.69,0,0,1-10.17-17,18.69,18.69,0,0,1,10.17-17A22.52,22.52,0,0,1,187.21.21a22.75,22.75,0,0,1,9,1.72A18,18,0,0,1,203,6.88L197.29,12a12.36,12.36,0,0,0-9.65-4.41,13,13,0,0,0-6.36,1.53,11,11,0,0,0-4.36,4.27,12.36,12.36,0,0,0-1.56,6.23,12.36,12.36,0,0,0,1.56,6.23,11,11,0,0,0,4.36,4.27,13,13,0,0,0,6.36,1.53,12.29,12.29,0,0,0,9.65-4.46L203,32.4a17.74,17.74,0,0,1-6.8,5,23,23,0,0,1-9,1.72A22.39,22.39,0,0,1,176.55,36.62Z"/><path class="cls-10" d="M244.16.86V38.48h-8.88V23.05H217.85V38.48H209V.86h8.88V15.69h17.43V.86Z"/><path class="cls-10" d="M278.53,30.42H260.71l-3.4,8.06h-9.1L265.32.86h8.77l17.16,37.62h-9.32Zm-2.8-6.61L269.65,9.4l-6.08,14.4Z"/><path class="cls-10" d="M320.71,2.53a13.11,13.11,0,0,1,5.78,4.73,12.85,12.85,0,0,1,2,7.26,12.87,12.87,0,0,1-2,7.23,12.85,12.85,0,0,1-5.78,4.73,22,22,0,0,1-8.85,1.64h-7.73V38.48h-8.88V.86h16.61A21.71,21.71,0,0,1,320.71,2.53Zm-3.26,16.79a5.85,5.85,0,0,0,2.08-4.81,5.91,5.91,0,0,0-2.08-4.86A9.46,9.46,0,0,0,311.36,8h-7.24V21h7.24A9.47,9.47,0,0,0,317.45,19.32Z"/><path class="cls-10" d="M364.53,31.49v7H334.82V.86h29v7H343.65V16h17.81v6.77H343.65v8.71Z"/><path class="cls-10" d="M396.05,38.48,388.65,28h-8.17V38.48H371.6V.86h16.61a21.71,21.71,0,0,1,8.85,1.67,13.11,13.11,0,0,1,5.78,4.73,12.85,12.85,0,0,1,2,7.26,12.58,12.58,0,0,1-2.06,7.23A13,13,0,0,1,397,26.39l8.61,12.09ZM393.8,9.65A9.46,9.46,0,0,0,387.72,8h-7.24V21.07h7.24a9.35,9.35,0,0,0,6.08-1.72,5.92,5.92,0,0,0,2.08-4.84A5.91,5.91,0,0,0,393.8,9.65Z"/><path class="cls-10" d="M419.7,36.6a19,19,0,0,1-7.51-7,18.7,18.7,0,0,1-2.71-10,18.71,18.71,0,0,1,2.71-10,19,19,0,0,1,7.51-7,24.18,24.18,0,0,1,21.52,0,19.22,19.22,0,0,1,7.51,7,18.58,18.58,0,0,1,2.74,10,18.57,18.57,0,0,1-2.74,10,19.21,19.21,0,0,1-7.51,7,24.17,24.17,0,0,1-21.52,0Zm16.91-6.42a11.11,11.11,0,0,0,4.3-4.27,12.37,12.37,0,0,0,1.56-6.23,12.37,12.37,0,0,0-1.56-6.23,11.11,11.11,0,0,0-4.3-4.27,13.07,13.07,0,0,0-12.28,0,11.11,11.11,0,0,0-4.3,4.27,12.37,12.37,0,0,0-1.56,6.23A12.37,12.37,0,0,0,420,25.9a11.1,11.1,0,0,0,4.3,4.27,13.07,13.07,0,0,0,12.28,0Z"/></g><g class="cls-9"><path class="cls-10" d="M138.72,90.7v3.44H111.58V56.51H137.9V60H115.64V73.34h19.85v3.39H115.64v14Z"/><path class="cls-10" d="M148.26,56.51h4.06V90.7h21.49v3.44H148.26Z"/><path class="cls-10" d="M207.69,90.7v3.44H180.55V56.51h26.32V60H184.61V73.34h19.85v3.39H184.61v14Z"/><path class="cls-10" d="M223.4,92a18.3,18.3,0,0,1-7.18-6.85,19.78,19.78,0,0,1,0-19.62,18.26,18.26,0,0,1,7.21-6.85,21.45,21.45,0,0,1,10.31-2.47,21.73,21.73,0,0,1,7.89,1.4,16.38,16.38,0,0,1,6.14,4.08l-2.58,2.53a15.44,15.44,0,0,0-11.35-4.46,16.94,16.94,0,0,0-8.28,2,15.08,15.08,0,0,0-5.84,5.59,16,16,0,0,0,0,15.91,15.08,15.08,0,0,0,5.84,5.59,16.93,16.93,0,0,0,8.28,2,15.23,15.23,0,0,0,11.35-4.51l2.58,2.53A16.58,16.58,0,0,1,241.6,93a21.55,21.55,0,0,1-7.92,1.42A21.28,21.28,0,0,1,223.4,92Z"/><path class="cls-10" d="M263.39,60H249.91V56.51h31V60H267.45V94.14h-4.06Z"/><path class="cls-10" d="M313.61,94.14,304.84,82a28.38,28.38,0,0,1-3.07.16H291.46V94.14H287.4V56.51h14.36q7.35,0,11.51,3.44a11.61,11.61,0,0,1,4.17,9.46,12.06,12.06,0,0,1-2.28,7.45,12.62,12.62,0,0,1-6.5,4.38l9.38,12.9Zm-3.23-17.79a8.47,8.47,0,0,0,3-6.93,8.51,8.51,0,0,0-3-7q-3-2.45-8.72-2.45h-10.2V78.82h10.2Q307.36,78.82,310.38,76.35Z"/><path class="cls-10" d="M333.49,92a18.45,18.45,0,0,1-7.24-6.85,19.67,19.67,0,0,1,0-19.56,18.45,18.45,0,0,1,7.24-6.85,22.62,22.62,0,0,1,20.61,0,18.93,18.93,0,0,1,0,33.33,22.62,22.62,0,0,1-20.61,0ZM352,88.9a14.74,14.74,0,0,0,5.76-5.59,16.33,16.33,0,0,0,0-16A14.75,14.75,0,0,0,352,61.75a17.84,17.84,0,0,0-16.47,0,14.88,14.88,0,0,0-5.81,5.59,16.15,16.15,0,0,0,0,16,14.88,14.88,0,0,0,5.81,5.59,17.84,17.84,0,0,0,16.47,0Zm-4.28-42.11H353l-8.88,6.67h-3.84Z"/><path class="cls-10" d="M405.11,56.51V94.14h-3.34L377.1,63.61V94.14H373V56.51h3.35L401.11,87V56.51Z"/><path class="cls-10" d="M417.61,56.51h4.06V94.14h-4.06Z"/><path class="cls-10" d="M440.56,92a18.3,18.3,0,0,1-7.18-6.85,19.78,19.78,0,0,1,0-19.62,18.26,18.26,0,0,1,7.21-6.85,21.45,21.45,0,0,1,10.31-2.47,21.73,21.73,0,0,1,7.89,1.4,16.38,16.38,0,0,1,6.14,4.08l-2.58,2.53A15.44,15.44,0,0,0,451,59.74a16.94,16.94,0,0,0-8.28,2,15.08,15.08,0,0,0-5.84,5.59,16,16,0,0,0,0,15.91,15.08,15.08,0,0,0,5.84,5.59,16.93,16.93,0,0,0,8.28,2,15.23,15.23,0,0,0,11.35-4.51l2.58,2.53A16.58,16.58,0,0,1,458.76,93a21.55,21.55,0,0,1-7.92,1.42A21.28,21.28,0,0,1,440.56,92Z"/><path class="cls-10" d="M479.21,92A18.45,18.45,0,0,1,472,85.11a19.67,19.67,0,0,1,0-19.56,18.45,18.45,0,0,1,7.24-6.85,22.62,22.62,0,0,1,20.61,0,18.93,18.93,0,0,1,0,33.33,22.62,22.62,0,0,1-20.61,0Zm18.56-3.06a14.74,14.74,0,0,0,5.76-5.59,16.33,16.33,0,0,0,0-16,14.75,14.75,0,0,0-5.76-5.59,17.84,17.84,0,0,0-16.47,0,14.88,14.88,0,0,0-5.81,5.59,16.15,16.15,0,0,0,0,16,14.88,14.88,0,0,0,5.81,5.59,17.84,17.84,0,0,0,16.47,0Z"/></g></g></g></svg>