<svg xmlns="http://www.w3.org/2000/svg" viewBox="0 0 135.03 46.6"><defs><style>.cls-1{fill:#51b158;}.cls-2{fill:#fff;}.cls-3{fill:#10afda;}.cls-4{fill:#0f806a;}.cls-5{fill:#e51e2a;}.cls-6{fill:#0a6bb4;}.cls-7{fill:#6c2480;}.cls-8{fill:#ffd008;}.cls-9{fill:#fbba2c;}.cls-10{fill:#ed6f29;}</style></defs><title>Asset 6</title><g id="Layer_2" data-name="Layer 2"><g id="Layer_1-2" data-name="Layer 1"><path class="cls-1" d="M48.33,41.36l.38,0h-.25Z"/><path class="cls-2" d="M14.46.26v6a1.07,1.07,0,0,1,0,.24H37.32V.26Z"/><path class="cls-2" d="M40.53,21.19a8.91,8.91,0,0,0-1.48-2.59,9.86,9.86,0,0,0-2.14-1.93,13.55,13.55,0,0,0-2.54-1.33,14.55,14.55,0,0,0-2.68-.78,15.65,15.65,0,0,0-2.55-.28H12a4.86,4.86,0,0,1-3.31-1,3.58,3.58,0,0,1-1.19-2.84A3.66,3.66,0,0,1,8.64,7.56a4.32,4.32,0,0,1,2.47-1V.29A16.64,16.64,0,0,0,8.05.8,12.44,12.44,0,0,0,4.17,2.55a10.17,10.17,0,0,0-3,3.14A8.84,8.84,0,0,0,0,10.41a8.9,8.9,0,0,0,1.19,4.74,10,10,0,0,0,3,3.14A12.58,12.58,0,0,0,8.05,20a15.69,15.69,0,0,0,3.9.54H29.09a5.81,5.81,0,0,1,1.88.29,4.09,4.09,0,0,1,1.43.81,3.6,3.6,0,0,1,.9,1.24,3.89,3.89,0,0,1,.32,1.58,3.59,3.59,0,0,1-1.19,2.83,4.87,4.87,0,0,1-3.34,1.05H.34v6.23H29.09a14.83,14.83,0,0,0,2.57-.24,14.6,14.6,0,0,0,2.68-.74,13.91,13.91,0,0,0,2.55-1.29A9.08,9.08,0,0,0,39,30.4a9.13,9.13,0,0,0,2-5.91A9.42,9.42,0,0,0,40.53,21.19Z"/><path class="cls-2" d="M103.06,6.49h32V.26H99.1a5.14,5.14,0,0,0-1.6.24,4,4,0,0,0-1.27.67,3.23,3.23,0,0,0-.84,1,2.55,2.55,0,0,0-.31,1.22v31.2h8Z"/><rect class="cls-2" x="106.25" y="14.29" width="25.22" height="6.27"/><path class="cls-2" d="M51.7,0l.38,0h-.25Z"/><path class="cls-2" d="M86.75,6.3l.38,0h-.25Z"/><path class="cls-2" d="M59.38,28.37H56.52a3.33,3.33,0,0,1-2.21-.66,2.29,2.29,0,0,1-.78-1.86V9a2.36,2.36,0,0,1,.77-1.92,3.36,3.36,0,0,1,2.22-.65H86.61V.26H56.52A13.14,13.14,0,0,0,53.1.67a10.65,10.65,0,0,0-2.66,1.09,8.82,8.82,0,0,0-2,1.57,8.66,8.66,0,0,0-1.34,1.86,8.49,8.49,0,0,0-.75,2A7.86,7.86,0,0,0,46.13,9V25.86a8.11,8.11,0,0,0,.48,2.88A7.72,7.72,0,0,0,47.9,31a8.31,8.31,0,0,0,1.86,1.65A11.36,11.36,0,0,0,52,33.76a12.9,12.9,0,0,0,2.33.63,13,13,0,0,0,2.21.2h2.86Z"/><path class="cls-2" d="M79.55,23h7.4V17.43a2.64,2.64,0,0,0-.28-1.21,3.25,3.25,0,0,0-.78-1,3.78,3.78,0,0,0-1.18-.68,4.26,4.26,0,0,0-1.48-.25H59.85v6.27h19.7Z"/><path class="cls-2" d="M79.55,26.26v2.11H61.32v6.23H83.22a4.44,4.44,0,0,0,1.48-.24,3.72,3.72,0,0,0,1.18-.66,3.06,3.06,0,0,0,.78-1,2.77,2.77,0,0,0,.28-1.25v-5.2Z"/><rect class="cls-2" x="58.19" y="28.37" width="5.72" height="6.22"/><rect class="cls-3" x="0.64" y="43.43" width="16.8" height="3.17"/><rect class="cls-4" x="51.04" y="43.43" width="16.8" height="3.17"/><rect class="cls-5" x="17.44" y="43.43" width="16.8" height="3.17"/><rect class="cls-6" x="34.24" y="43.43" width="16.8" height="3.17"/><rect class="cls-7" x="67.84" y="43.43" width="16.8" height="3.17"/><rect class="cls-8" x="84.64" y="43.43" width="16.8" height="3.17"/><rect class="cls-9" x="101.43" y="43.43" width="16.8" height="3.17"/><rect class="cls-10" x="118.23" y="43.43" width="16.8" height="3.17"/></g></g></svg>