<svg xmlns="http://www.w3.org/2000/svg" viewBox="0 0 683.15 182.98"><defs><style>.cls-1{fill:#087f69;}.cls-2{fill:#05adde;}.cls-3{fill:#ff0;}.cls-4{fill:#6d2281;}.cls-5{fill:#369;}.cls-6{fill:#e91627;}.cls-7{fill:#282828;}.cls-8{fill:none;stroke:#fff;stroke-miterlimit:10;stroke-width:4px;}.cls-9{fill:#fff;}</style></defs><title>Asset 14</title><g id="Layer_2" data-name="Layer 2"><g id="Layer_1-2" data-name="Layer 1"><path class="cls-1" d="M89.88,131.32c-10.49,0-16.91-8.57-14.43-17.88a3,3,0,0,0-.92-3.33Q52.81,88.45,31.15,66.72A2.53,2.53,0,0,0,28.28,66a13.75,13.75,0,0,1-17.61-9.9A13.94,13.94,0,0,1,21.84,39c6.3-1.09,12,2,14.9,8a11.94,11.94,0,0,1,.76,9.6A3,3,0,0,0,38.32,60c.78.73,1.54,1.49,2.3,2.25l39,39c.72.72,1.43,1.43,2.12,2.18a2.46,2.46,0,0,0,2.9.71,13.92,13.92,0,0,1,16.26,20.2A13.08,13.08,0,0,1,89.88,131.32Zm2.84-13.94a4,4,0,1,0-7.92.06,4,4,0,0,0,3.88,4.09A4.18,4.18,0,0,0,92.73,117.37ZM20.21,52.79a3.94,3.94,0,0,0,3.85,4.09,4.18,4.18,0,0,0,4.08-4.12,3.7,3.7,0,0,0-4-3.85A3.66,3.66,0,0,0,20.21,52.79Z"/><path class="cls-2" d="M153.26,129.21A13.45,13.45,0,0,1,141,142.87a14.14,14.14,0,0,1-15.27-11.41,11.78,11.78,0,0,1,.47-6.6,2.48,2.48,0,0,0-.68-2.92c-2.72-2.67-5.45-5.34-8.15-8q-9.39-9.39-18.76-18.81L86.76,83.26c-1.6-1.6-3.21-3.2-4.78-4.84a2.64,2.64,0,0,0-3.06-.76c-5.81,2.09-12.34-.58-15.69-5.53A14,14,0,0,1,64,55.55a13.39,13.39,0,0,1,14-4.68A12.93,12.93,0,0,1,88.34,61.25,13.29,13.29,0,0,1,88,68.83a1.88,1.88,0,0,0,.52,2.23q16.14,16.11,32.26,32.26c3.86,3.86,7.73,7.7,11.56,11.59a2.87,2.87,0,0,0,3.07.82c6.09-1.61,11.88.31,15.35,5.09A13.4,13.4,0,0,1,153.26,129.21Zm-13.75,3.72c2.44,0,3.89-1.38,3.91-3.75a4.28,4.28,0,0,0-3.94-4.27,4.2,4.2,0,0,0-4,4.23C135.49,131.43,137.06,132.92,139.5,132.92ZM74.8,68.32a3.74,3.74,0,0,0,4-3.75,4.29,4.29,0,0,0-4-4.29,4.18,4.18,0,0,0-4,4A3.71,3.71,0,0,0,74.8,68.32Z"/><path class="cls-3" d="M112.61,163.05l-8.87,5.09c-.41-2.08-1.55-3.33-3.59-3.52a3.88,3.88,0,0,0-3.85,2.12c-1.13,1.91-.36,3.54,1,5.09l-8.68,5a12.63,12.63,0,0,1-2.53-6.05,13.06,13.06,0,0,1,.34-5.4,4.15,4.15,0,0,0-1.25-4.44q-17-16.87-33.88-33.8c-3-3-6-6-9-9a2.77,2.77,0,0,0-3.12-.81,13.56,13.56,0,0,1-17.6-10.77C20.45,100,23.71,91.9,33,90.16c7.4-1.38,14.91,4.1,16,11.6a12.74,12.74,0,0,1-.28,5.49A4.32,4.32,0,0,0,50.07,112Q61.55,123.28,72.9,134.7q9.48,9.49,18.91,19A4.46,4.46,0,0,0,97.07,155c2.26-.91,4.52-.43,6.74.24A13.56,13.56,0,0,1,112.61,163.05ZM39.09,104a3.84,3.84,0,0,0-3.88-4,4.17,4.17,0,0,0-4,4.07,4.29,4.29,0,0,0,4.13,4.12A4,4,0,0,0,39.09,104Z"/><path class="cls-4" d="M51.07,18.9,59.9,14c.55,1.91,1.65,3.1,3.67,3.18a4,4,0,0,0,3.8-2.22c.94-1.67.41-3.16-.8-4.65l8.76-4.87a13,13,0,0,1,2.2,6,16,16,0,0,1-.6,6.1,2.46,2.46,0,0,0,.8,2.71c2.31,2.19,4.58,4.44,6.83,6.7Q99.5,41.87,114.41,56.81q3.51,3.51,7,7.07a2.41,2.41,0,0,0,2.59.69c4.24-1.11,8.34-.9,12.12,1.52a13.1,13.1,0,0,1,6,9.9c1,7.79-3.69,14.14-11.41,15.61a13.89,13.89,0,0,1-15.77-10.14,12.23,12.23,0,0,1,.15-7.73,2.69,2.69,0,0,0-.77-3.08q-2.39-2.35-4.77-4.72L79.1,35.52c-2.34-2.34-4.64-4.72-7-7.05C71,27.35,69.81,26.27,68,26.42a3.91,3.91,0,0,0-.87.15c-4.78,1.54-8.9.14-12.6-2.91A12.68,12.68,0,0,1,51.07,18.9Zm81.37,58.91a4.38,4.38,0,0,0-4.2-4.16,4.13,4.13,0,0,0-3.79,4.21,3.93,3.93,0,0,0,3.88,4A4.21,4.21,0,0,0,132.45,77.81Z"/><path class="cls-5" d="M116.85,21.36c.6.31,1.22.61,1.81.94,2.94,1.69,5.87,3.41,8.83,5.07.62.35.75.74.43,1.27-.85,1.41-.29,2.41.75,3.45q13.66,13.6,27.27,27.25c1.05,1.05,2.11,2.11,3.12,3.2a1.79,1.79,0,0,1,.5,1.07c0,4.2,0,8.41,0,12.61a4.74,4.74,0,0,1-.08.51c-.31-.28-.54-.48-.76-.69q-10.32-10.3-20.64-20.6-8.18-8.18-16.33-16.38a3,3,0,0,0-3.46-.9C109.85,41,100.74,34,100.51,25.79c-.12-4.36,1.56-8.94,4.57-11.33,2.48,1.43,5,2.86,7.47,4.32,1.46.85,2.89,1.74,4.33,2.62l-.81-.29a4,4,0,0,0-4.45.89,3.73,3.73,0,0,0-1.06,4.07,4.45,4.45,0,0,0,3.76,2.87,4.18,4.18,0,0,0,3.14-6.85C117.25,21.85,117.05,21.6,116.85,21.36Z"/><path class="cls-6" d="M46.79,160.45c-.94-.51-1.89-1-2.81-1.53-2.61-1.49-5.2-3-7.82-4.49-.61-.34-.79-.71-.46-1.26.84-1.4.31-2.42-.74-3.46Q19.77,134.6,4.61,119.46a2.08,2.08,0,0,1-.67-1.64c0-4.23,0-8.46,0-12.94.38.35.62.58.85.81q18.44,18.43,36.86,36.89a3.22,3.22,0,0,0,3.89.94c5.09-2,14.3.91,16.73,8.69,1.7,5.43.94,10.35-3.12,14.56-.31.33-.56.63-1.12.3-3.47-2-7-4-10.43-6.05a1.24,1.24,0,0,1-.24-.24,17.57,17.57,0,0,0,1.85.19,4.17,4.17,0,0,0,4.07-4,4.42,4.42,0,0,0-4.12-4.06,4.28,4.28,0,0,0-4.05,4.09A4.76,4.76,0,0,0,46.79,160.45Z"/><path class="cls-7" d="M46.79,160.45a4.76,4.76,0,0,1-1.66-3.51,4.28,4.28,0,0,1,4.05-4.09,4.42,4.42,0,0,1,4.12,4.06,4.17,4.17,0,0,1-4.07,4,17.57,17.57,0,0,1-1.85-.19Z"/><path class="cls-7" d="M92.73,117.37a4.18,4.18,0,0,1-4,4.15,4,4,0,0,1-3.88-4.09,4,4,0,1,1,7.92-.06Z"/><path class="cls-7" d="M20.21,52.79a3.66,3.66,0,0,1,3.94-3.88,3.7,3.7,0,0,1,4,3.85,4.18,4.18,0,0,1-4.08,4.12A3.94,3.94,0,0,1,20.21,52.79Z"/><path class="cls-7" d="M139.5,132.92c-2.44,0-4-1.49-4-3.8a4.2,4.2,0,0,1,4-4.23,4.28,4.28,0,0,1,3.94,4.27C143.39,131.54,141.94,132.93,139.5,132.92Z"/><path class="cls-7" d="M74.8,68.32a3.71,3.71,0,0,1-3.93-4,4.18,4.18,0,0,1,4-4,4.29,4.29,0,0,1,4,4.29A3.74,3.74,0,0,1,74.8,68.32Z"/><path class="cls-7" d="M39.09,104a4,4,0,0,1-3.8,4.17A4.29,4.29,0,0,1,31.17,104a4.17,4.17,0,0,1,4-4.07A3.84,3.84,0,0,1,39.09,104Z"/><path class="cls-7" d="M132.45,77.81a4.21,4.21,0,0,1-4.11,4,3.93,3.93,0,0,1-3.88-4,4.13,4.13,0,0,1,3.79-4.21A4.38,4.38,0,0,1,132.45,77.81Z"/><path class="cls-7" d="M116.85,21.36c.2.24.39.49.61.73a4.18,4.18,0,0,1-3.14,6.85,4.45,4.45,0,0,1-3.76-2.87A3.73,3.73,0,0,1,111.62,22a4,4,0,0,1,4.45-.89l.81.29Z"/><path class="cls-7" d="M161.59,91c0,12-.05,24,0,36,0,6.73-2.88,11.64-8.63,15q-7.42,4.31-14.85,8.59l-35,20.18c-4.56,2.63-9.1,5.31-13.72,7.86a15.24,15.24,0,0,1-15.06.12c-2.83-1.46-5.53-3.17-8.28-4.76Q51,165.26,35.93,156.56c-8.63-5-17.24-10-25.89-15-5.53-3.17-8-8-8-14.24q0-11,0-22,0-25.4,0-50.8c0-6.33,2.65-11.16,8.11-14.34C23,32.7,35.81,25.24,48.73,17.88,57.6,12.83,66.57,7.94,75.53,3c3-1.65,6.23-1.63,9.48-.83A45.82,45.82,0,0,1,96.82,7.38q15.76,9.07,31.48,18.2,12.18,7,24.37,14.06c4.24,2.44,7.32,5.78,8.44,10.66a15.47,15.47,0,0,1,.46,3.35c0,7.66,0,15.32,0,23q0,7.16,0,14.31ZM46.79,160.45l.59.32a1.24,1.24,0,0,0,.24.24c3.48,2,7,4,10.43,6.05.56.33.81,0,1.12-.3,4.06-4.21,4.82-9.12,3.12-14.56-2.43-7.78-11.65-10.66-16.73-8.69a3.22,3.22,0,0,1-3.89-.94Q23.27,124.1,4.81,105.69c-.23-.23-.48-.45-.85-.81,0,4.47,0,8.71,0,12.94a2.08,2.08,0,0,0,.67,1.64Q19.79,134.57,35,149.7c1,1,1.58,2.06.74,3.46-.33.54-.15.92.46,1.26,2.63,1.46,5.21,3,7.82,4.49C44.9,159.45,45.85,159.94,46.79,160.45ZM116.85,21.36l0,0c-1.44-.87-2.88-1.76-4.33-2.61-2.49-1.46-5-2.89-7.47-4.32-3,2.39-4.69,7-4.57,11.33.23,8.16,9.34,15.24,17.82,12.38a3,3,0,0,1,3.46.9q8.14,8.21,16.33,16.38Q148.42,65.75,158.75,76c.21.21.45.41.76.69a4.74,4.74,0,0,0,.08-.51c0-4.2,0-8.41,0-12.61a1.79,1.79,0,0,0-.5-1.07c-1-1.09-2.07-2.14-3.12-3.2q-13.63-13.63-27.27-27.25c-1-1-1.6-2-.75-3.45.32-.53.19-.92-.43-1.27-3-1.66-5.89-3.38-8.83-5.07C118.07,22,117.45,21.67,116.85,21.36Zm-27,110a13.08,13.08,0,0,0,11-7,13.92,13.92,0,0,0-16.26-20.2,2.46,2.46,0,0,1-2.9-.71c-.68-.75-1.4-1.46-2.12-2.18l-39-39c-.76-.76-1.52-1.51-2.3-2.25a3,3,0,0,1-.82-3.49,11.94,11.94,0,0,0-.76-9.6c-2.89-6-8.6-9.07-14.9-8A13.94,13.94,0,0,0,10.67,56.1,13.75,13.75,0,0,0,28.28,66a2.53,2.53,0,0,1,2.87.71q21.66,21.73,43.39,43.39a3,3,0,0,1,.92,3.33C73,122.75,79.39,131.32,89.88,131.32Zm63.37-2.11a13.4,13.4,0,0,0-2.53-8.4c-3.48-4.77-9.26-6.69-15.35-5.09a2.87,2.87,0,0,1-3.07-.82c-3.83-3.89-7.7-7.73-11.56-11.59Q104.62,87.18,88.48,71.05A1.88,1.88,0,0,1,88,68.83a13.29,13.29,0,0,0,.38-7.58A12.93,12.93,0,0,0,78.07,50.88a13.39,13.39,0,0,0-14,4.68,14,14,0,0,0-.79,16.58c3.34,4.94,9.88,7.61,15.69,5.53a2.64,2.64,0,0,1,3.06.76c1.57,1.63,3.18,3.23,4.78,4.84L98.58,95.09q9.38,9.4,18.76,18.81c2.7,2.7,5.42,5.37,8.15,8a2.48,2.48,0,0,1,.68,2.92,11.78,11.78,0,0,0-.47,6.6A14.14,14.14,0,0,0,141,142.87,13.45,13.45,0,0,0,153.26,129.21Zm-40.64,33.85a13.56,13.56,0,0,0-8.8-7.82c-2.22-.67-4.48-1.15-6.74-.24a4.46,4.46,0,0,1-5.26-1.25q-9.44-9.54-18.91-19Q61.52,123.31,50.07,112a4.32,4.32,0,0,1-1.31-4.74,12.74,12.74,0,0,0,.28-5.49c-1.12-7.5-8.63-13-16-11.6-9.3,1.74-12.57,9.82-11.39,16.39a13.56,13.56,0,0,0,17.6,10.77,2.77,2.77,0,0,1,3.12.81c2.95,3,6,6,9,9Q68.23,144,85.18,160.92a4.15,4.15,0,0,1,1.25,4.44,13.06,13.06,0,0,0-.34,5.4,12.63,12.63,0,0,0,2.53,6.05l8.68-5c-1.37-1.55-2.13-3.17-1-5.09a3.88,3.88,0,0,1,3.85-2.12c2,.19,3.18,1.44,3.59,3.52ZM51.07,18.9a12.68,12.68,0,0,0,3.48,4.76c3.7,3.05,7.82,4.45,12.6,2.91a3.91,3.91,0,0,1,.87-.15c1.78-.15,3,.93,4.09,2.05,2.35,2.33,4.65,4.71,7,7.05l30.42,30.42q2.37,2.37,4.77,4.72a2.69,2.69,0,0,1,.77,3.08,12.23,12.23,0,0,0-.15,7.73,13.89,13.89,0,0,0,15.77,10.14C138.4,90.14,143,83.79,142.09,76a13.1,13.1,0,0,0-6-9.9c-3.78-2.43-7.88-2.64-12.12-1.52a2.41,2.41,0,0,1-2.59-.69q-3.45-3.57-7-7.07Q99.5,41.87,84.58,26.94c-2.26-2.26-4.52-4.5-6.83-6.7a2.46,2.46,0,0,1-.8-2.71,16,16,0,0,0,.6-6.1,13,13,0,0,0-2.2-6l-8.76,4.87c1.21,1.5,1.74,3,.8,4.65a4,4,0,0,1-3.8,2.22c-2-.07-3.12-1.27-3.67-3.18Z"/><path class="cls-8" d="M161.59,91.28c0,12-.05,24,0,36,0,6.73-2.88,11.64-8.63,15q-7.42,4.31-14.85,8.59l-35,20.18c-4.56,2.63-9.1,5.31-13.72,7.86a15.24,15.24,0,0,1-15.06.12c-2.83-1.46-5.53-3.17-8.28-4.76Q51,165.59,35.93,156.88c-8.63-5-17.24-10-25.89-15-5.53-3.17-8-8-8-14.24q0-11,0-22,0-25.4,0-50.8C2,48.5,4.65,43.67,10.11,40.5,23,33,35.81,25.56,48.73,18.21c8.87-5.05,17.85-9.94,26.8-14.85,3-1.65,6.23-1.63,9.48-.83A45.82,45.82,0,0,1,96.82,7.71q15.76,9.07,31.48,18.2,12.18,7,24.37,14.06c4.24,2.44,7.32,5.78,8.44,10.66a15.47,15.47,0,0,1,.46,3.35c0,7.66,0,15.32,0,23q0,7.16,0,14.31Z"/><path class="cls-9" d="M254.8,151.74a63.73,63.73,0,0,1-24.11-24.63q-8.77-15.75-8.77-35.61t8.77-35.61A63.74,63.74,0,0,1,254.8,31.24a71.94,71.94,0,0,1,63.64-2.77A59,59,0,0,1,340.33,46L321.89,64.38q-12.59-15.66-31.2-15.66a39.08,39.08,0,0,0-20.56,5.44A37.43,37.43,0,0,0,256,69.34,47.4,47.4,0,0,0,251,91.49,47.39,47.39,0,0,0,256,113.64a37.42,37.42,0,0,0,14.09,15.18,39.08,39.08,0,0,0,20.56,5.44q18.61,0,31.2-15.85l18.44,18.33a58.06,58.06,0,0,1-22,17.76,68.46,68.46,0,0,1-29.25,6.11A67.18,67.18,0,0,1,254.8,151.74Z"/><path class="cls-9" d="M359.65,24.66h28.72V158.33H359.65Z"/><path class="cls-9" d="M530.71,158.33l-.18-80.2L494,144.2H481.07L444.73,79.84v78.48H417.79V24.66h23.75L488,107.72l45.73-83.07H557.3l.35,133.67Z"/><path class="cls-9" d="M683.15,133.5v24.82H587.07V24.66h93.77V49.48H615.61v29h57.61v24.06H615.61V133.5Z"/></g></g></svg>